<svg width="16" height="16" viewBox="0 0 16 16" fill="none" xmlns="http://www.w3.org/2000/svg">
<path d="M2.63202 8.87867C2.57233 9.04161 2.45146 9.17486 2.29509 9.25011C2.13873 9.32535 1.95918 9.33666 1.7946 9.28163C1.63003 9.2266 1.4934 9.10956 1.41374 8.95539C1.33409 8.80122 1.31768 8.62207 1.36802 8.456C1.35468 8.496 1.36802 8.45467 1.36802 8.45467C1.39179 8.38128 1.41938 8.30918 1.45068 8.23867C1.50402 8.112 1.58268 7.93733 1.69068 7.73067C1.90935 7.31733 2.25335 6.76667 2.75735 6.216C3.78002 5.10267 5.45068 4 8.00002 4C10.5507 4 12.2213 5.10267 13.2413 6.216C13.7859 6.81321 14.2275 7.49674 14.548 8.23867C14.5747 8.30133 14.5947 8.352 14.608 8.38933C14.6133 8.4 14.6267 8.46933 14.64 8.536C14.652 8.59733 14.6627 8.656 14.6667 8.66667C14.6667 8.66667 14.7787 9.11067 14.2107 9.29867C14.0434 9.35453 13.8608 9.34183 13.7029 9.26337C13.5449 9.1849 13.4245 9.04705 13.368 8.88V8.876L13.3587 8.85467C13.2917 8.68339 13.2151 8.51601 13.1293 8.35333C12.8927 7.9061 12.6001 7.49077 12.2587 7.11733C11.4453 6.23067 10.116 5.33333 8.00002 5.33333C5.88402 5.33333 4.55468 6.23067 3.74135 7.11733C3.301 7.60009 2.94291 8.15188 2.68135 8.75067C2.66735 8.78508 2.65402 8.81975 2.64135 8.85467L2.63202 8.87867Z" fill="#5F5F5F"/>
<path d="M5.3335 9.33332C5.3335 8.62608 5.61445 7.9478 6.11454 7.4477C6.61464 6.94761 7.29292 6.66666 8.00016 6.66666C8.70741 6.66666 9.38568 6.94761 9.88578 7.4477C10.3859 7.9478 10.6668 8.62608 10.6668 9.33332C10.6668 10.0406 10.3859 10.7188 9.88578 11.2189C9.38568 11.719 8.70741 12 8.00016 12C7.29292 12 6.61464 11.719 6.11454 11.2189C5.61445 10.7188 5.3335 10.0406 5.3335 9.33332Z" fill="#5F5F5F"/>
</svg>
