<svg width="12" height="12" viewBox="0 0 12 12" fill="none" xmlns="http://www.w3.org/2000/svg">
<g id="bi:facebook" clip-path="url(#clip0_227_1026)">
<g id="Group">
<path id="Vector" d="M11.9995 6.03649C11.9995 2.70199 9.31305 -0.00100708 5.99955 -0.00100708C2.68455 -0.00025708 -0.00195312 2.70199 -0.00195312 6.03724C-0.00195312 9.04999 2.19255 11.5475 5.06055 12.0005V7.78174H3.53805V6.03724H5.06205V4.70599C5.06205 3.19324 5.9583 2.35774 7.32855 2.35774C7.98555 2.35774 8.6718 2.47549 8.6718 2.47549V3.96049H7.91505C7.1703 3.96049 6.9378 4.42624 6.9378 4.90399V6.03649H8.6013L8.3358 7.78099H6.93705V11.9997C9.80505 11.5467 11.9995 9.04924 11.9995 6.03649Z" fill="#002060"/>
</g>
</g>
<defs>
<clipPath id="clip0_227_1026">
<rect width="12" height="12" fill="white"/>
</clipPath>
</defs>
</svg>
