<svg width="14" height="14" viewBox="0 0 14 14" fill="none" xmlns="http://www.w3.org/2000/svg">
<g id="ant-design:instagram-filled">
<path id="Vector" d="M6.99982 5.17775C5.9963 5.17775 5.17736 5.99669 5.17736 7.00021C5.17736 8.00373 5.9963 8.82267 6.99982 8.82267C8.00334 8.82267 8.82228 8.00373 8.82228 7.00021C8.82228 5.99669 8.00334 5.17775 6.99982 5.17775ZM12.4658 7.00021C12.4658 6.24552 12.4727 5.49767 12.4303 4.74435C12.3879 3.86935 12.1883 3.09279 11.5485 2.45295C10.9072 1.81173 10.132 1.61349 9.25705 1.57111C8.50236 1.52873 7.75451 1.53556 7.00119 1.53556C6.2465 1.53556 5.49865 1.52873 4.74533 1.57111C3.87033 1.61349 3.09377 1.8131 2.45392 2.45295C1.81271 3.09416 1.61447 3.86935 1.57209 4.74435C1.5297 5.49904 1.53654 6.24689 1.53654 7.00021C1.53654 7.75353 1.5297 8.50275 1.57209 9.25607C1.61447 10.1311 1.81408 10.9076 2.45392 11.5475C3.09513 12.1887 3.87033 12.3869 4.74533 12.4293C5.50002 12.4717 6.24787 12.4649 7.00119 12.4649C7.75587 12.4649 8.50373 12.4717 9.25705 12.4293C10.132 12.3869 10.9086 12.1873 11.5485 11.5475C12.1897 10.9063 12.3879 10.1311 12.4303 9.25607C12.474 8.50275 12.4658 7.7549 12.4658 7.00021ZM6.99982 9.80431C5.44806 9.80431 4.19572 8.55197 4.19572 7.00021C4.19572 5.44845 5.44806 4.19611 6.99982 4.19611C8.55158 4.19611 9.80392 5.44845 9.80392 7.00021C9.80392 8.55197 8.55158 9.80431 6.99982 9.80431ZM9.91877 4.73615C9.55646 4.73615 9.26388 4.44357 9.26388 4.08127C9.26388 3.71896 9.55646 3.42638 9.91877 3.42638C10.2811 3.42638 10.5736 3.71896 10.5736 4.08127C10.5738 4.1673 10.5569 4.2525 10.524 4.33201C10.4911 4.41151 10.4429 4.48375 10.3821 4.54458C10.3212 4.60541 10.249 4.65365 10.1695 4.68652C10.09 4.71939 10.0048 4.73626 9.91877 4.73615Z" fill="#002060"/>
</g>
</svg>
