<svg width="22" height="22" viewBox="0 0 22 22" fill="none" xmlns="http://www.w3.org/2000/svg">
<path d="M11 22C12.5177 22 13.7487 20.7689 13.7487 19.25H8.25132C8.25132 20.7689 9.48237 22 11 22ZM20.2551 15.5671C19.4249 14.6751 17.8716 13.3332 17.8716 8.9375C17.8716 5.59883 15.5307 2.92617 12.3742 2.27047V1.375C12.3742 0.615742 11.7589 0 11 0C10.2412 0 9.62589 0.615742 9.62589 1.375V2.27047C6.4694 2.92617 4.12847 5.59883 4.12847 8.9375C4.12847 13.3332 2.57515 14.6751 1.74499 15.5671C1.48718 15.8443 1.37288 16.1756 1.37503 16.5C1.37976 17.2047 1.93276 17.875 2.75433 17.875H19.2457C20.0673 17.875 20.6207 17.2047 20.625 16.5C20.6272 16.1756 20.5129 15.8439 20.2551 15.5671Z" fill="#002060"/>
</svg>
