<svg width="14" height="14" viewBox="0 0 14 14" fill="none" xmlns="http://www.w3.org/2000/svg">
<g id="ant-design:twitter-circle-filled" clip-path="url(#clip0_227_1029)">
<path id="Vector" d="M7 0.875C3.61758 0.875 0.875 3.61758 0.875 7C0.875 10.3824 3.61758 13.125 7 13.125C10.3824 13.125 13.125 10.3824 13.125 7C13.125 3.61758 10.3824 0.875 7 0.875ZM9.94355 5.49199C9.94766 5.55625 9.94766 5.62324 9.94766 5.68887C9.94766 7.6959 8.41914 10.0078 5.62598 10.0078C4.76465 10.0078 3.96621 9.75762 3.29355 9.32695C3.4166 9.34062 3.53418 9.34609 3.65996 9.34609C4.3709 9.34609 5.02441 9.10547 5.54531 8.69805C4.87813 8.68438 4.31758 8.24688 4.12617 7.64531C4.35996 7.67949 4.57051 7.67949 4.81113 7.61797C4.46759 7.54817 4.15881 7.3616 3.93725 7.08994C3.71568 6.81828 3.595 6.47829 3.5957 6.12773V6.10859C3.79668 6.22207 4.0332 6.2918 4.28066 6.30137C4.07264 6.16273 3.90203 5.9749 3.78398 5.75453C3.66593 5.53417 3.60407 5.28808 3.60391 5.03809C3.60391 4.75508 3.67773 4.49668 3.81035 4.27246C4.19166 4.74187 4.66748 5.12578 5.20689 5.39925C5.74629 5.67272 6.3372 5.82962 6.94121 5.85977C6.72656 4.82754 7.49766 3.99219 8.42461 3.99219C8.86211 3.99219 9.25586 4.17539 9.5334 4.4707C9.87656 4.40645 10.2047 4.27793 10.4973 4.10566C10.3838 4.45703 10.1459 4.75371 9.83008 4.94102C10.1363 4.9082 10.4316 4.82344 10.7051 4.70449C10.4986 5.00801 10.2402 5.27734 9.94355 5.49199Z" fill="#002060"/>
</g>
<defs>
<clipPath id="clip0_227_1029">
<rect width="14" height="14" fill="white"/>
</clipPath>
</defs>
</svg>
